<?xml version="1.0" encoding="utf-8"?>
<!-- Generator: Adobe Illustrator 27.9.0, SVG Export Plug-In . SVG Version: 6.00 Build 0)  -->
<svg version="1.1" id="Layer_1" xmlns="http://www.w3.org/2000/svg" xmlns:xlink="http://www.w3.org/1999/xlink" x="0px" y="0px"
	 viewBox="0 0 100 100" style="enable-background:new 0 0 100 100;" xml:space="preserve">
<g>
	<g>
		<path d="M18.5,34.5c0.1,0,0.3,0,0.6,0s0.5,0,0.7,0s0.5,0,0.7-0.1c0.2,0,0.4-0.1,0.5-0.1c0.1-0.1,0.2-0.1,0.4-0.1
			c0.2,0,0.3,0.1,0.4,0.2s0.2,0.3,0.2,0.4c0,0.2-0.1,0.3-0.3,0.5c-0.2,0.1-0.4,0.2-0.6,0.3s-0.5,0.1-0.9,0.1c-0.3,0-0.6,0-0.9,0
			s-0.6,0-0.8,0h-0.1c0,0.5,0,0.9,0.1,1.4s0,0.9,0,1.3c0,0.2,0,0.3,0,0.4s0,0.3,0,0.4c0,0.2,0,0.4,0,0.6s0,0.3-0.1,0.4
			c0,0.2-0.1,0.4-0.2,0.6C18,40.9,17.8,41,17.6,41c-0.1,0-0.2,0-0.4-0.1c-0.1-0.1-0.3-0.2-0.4-0.4c-0.2-0.3-0.3-0.7-0.5-1.3
			c-0.1-0.6-0.2-1.2-0.3-1.8c-0.1-0.7-0.1-1.3-0.1-2c0-0.7,0-1.2,0-1.6c0-0.5,0-1.1,0.1-1.7c0.1-0.6,0.1-1.1,0.3-1.6
			c0.1-0.5,0.4-0.9,0.6-1.3c0.3-0.4,0.6-0.6,1.1-0.7c0.3-0.1,0.7-0.1,1-0.2c0.3,0,0.7,0,1,0c0.6,0,1.1,0,1.5,0.1
			c0.5,0,0.8,0.1,0.9,0.1c0.3,0.1,0.5,0.3,0.5,0.6c0,0.2-0.1,0.3-0.2,0.4s-0.3,0.2-0.4,0.2c-0.1,0-0.1,0-0.2,0
			c-0.1,0-0.4-0.1-0.7-0.1c-0.4,0-0.8,0-1.3,0c-0.1,0-0.3,0-0.5,0c-0.2,0-0.4,0-0.6,0s-0.4,0-0.6,0.1s-0.3,0.1-0.5,0.2
			c0,0,0,0,0,0.1c0.1,0.8,0.2,1.5,0.2,2.3c0,0.8,0.1,1.5,0.2,2.3L18.5,34.5L18.5,34.5z"/>
		<path d="M27.4,41c-0.1,0-0.3,0-0.4-0.1s-0.2-0.2-0.2-0.3c0-0.1-0.1-0.2-0.1-0.4s0-0.2,0-0.4c-0.2,0.3-0.4,0.5-0.6,0.8
			c-0.3,0.2-0.6,0.3-0.9,0.3c-0.5,0-0.9-0.1-1.2-0.4c-0.3-0.2-0.6-0.6-0.8-1c-0.2-0.4-0.3-0.8-0.4-1.2c-0.1-0.5-0.1-0.9-0.1-1.2
			c0-0.2,0-0.5,0-0.8c0-0.3,0.1-0.6,0.2-0.9c0.1-0.3,0.3-0.6,0.5-0.8c0.2-0.2,0.4-0.3,0.8-0.3c0.3,0,0.5,0.1,0.6,0.3
			c0.1,0.2,0.2,0.5,0.3,0.8c0,0.3,0.1,0.6,0.1,0.9s0,0.6,0,0.8c0,0.2,0,0.4,0,0.7c0,0.3,0,0.6,0,0.9s0,0.5,0,0.7
			c0,0.2,0.1,0.3,0.2,0.3c0.1,0,0.3-0.1,0.4-0.3c0.1-0.2,0.2-0.4,0.4-0.7c0.1-0.3,0.2-0.6,0.3-1s0.2-0.7,0.2-1.1s0.1-0.7,0.2-1
			c0-0.3,0.1-0.5,0.1-0.7c0-0.2,0.1-0.4,0.2-0.5c0.1-0.2,0.3-0.2,0.5-0.2c0.3,0,0.6,0.1,0.7,0.3c0.2,0.2,0.3,0.5,0.4,0.8
			c0.1,0.3,0.1,0.6,0.2,0.9c0,0.3,0,0.6,0,0.8s0,0.6,0,1c0,0.4-0.1,0.8-0.2,1.3s-0.2,0.8-0.5,1.1C28,40.8,27.8,41,27.4,41z"/>
		<path d="M38.9,37.6c0,0.6-0.1,1.1-0.4,1.5c-0.3,0.4-0.6,0.8-1,1s-0.8,0.5-1.3,0.6c-0.5,0.1-0.9,0.2-1.4,0.2c-0.5,0-1-0.1-1.5-0.2
			c-0.5-0.2-0.9-0.4-1.3-0.7c0,0.1,0,0.3-0.1,0.5c0,0.2-0.1,0.3-0.1,0.5s-0.1,0.3-0.2,0.4c-0.1,0.1-0.3,0.2-0.5,0.2
			c-0.1,0-0.2,0-0.3-0.1s-0.3-0.2-0.4-0.3c-0.1-0.2-0.2-0.4-0.2-0.7c-0.1-0.3-0.1-0.7-0.2-1c0-0.4-0.1-0.8-0.1-1.2
			c0-0.4,0-0.8-0.1-1.2s0-0.7,0-1s0-0.6,0-0.8c0-0.4,0-0.8,0-1.4c0-0.5,0-1.1,0.1-1.6c0-0.5,0.1-1.1,0.2-1.6s0.2-1,0.3-1.3
			c0.1-0.2,0.2-0.5,0.3-0.7s0.4-0.3,0.6-0.3c0.3,0,0.4,0.1,0.5,0.3c0.1,0.2,0.1,0.4,0.2,0.6c0,0,0,0.1,0,0.1s0,0.1,0,0.1
			c0.4-0.4,0.9-0.7,1.4-0.9c0.5-0.2,1.1-0.3,1.7-0.3c0.4,0,0.8,0.1,1.2,0.2c0.4,0.1,0.8,0.3,1.1,0.6s0.6,0.6,0.8,0.9
			c0.2,0.4,0.3,0.8,0.3,1.3c0,0.4-0.1,0.8-0.2,1.2c-0.2,0.4-0.4,0.7-0.7,1s-0.6,0.6-0.9,0.9c-0.3,0.3-0.7,0.5-1.1,0.7
			c0.5,0,0.9,0,1.3,0.1c0.4,0.1,0.8,0.2,1.1,0.4s0.6,0.5,0.8,0.8C38.8,36.8,38.9,37.2,38.9,37.6z M32,31.4c0,0.7,0,1.4,0.1,2
			c0,0.7,0,1.4,0,2c0,0.5,0,1,0,1.5s0,1,0,1.5c0.3,0.4,0.7,0.7,1.2,0.9c0.5,0.2,1,0.3,1.5,0.3c1.2,0,1.7-0.7,1.7-2
			c0-0.5-0.1-0.9-0.3-1.1c-0.2-0.2-0.6-0.3-1.1-0.3c-0.3,0-0.6,0-0.9,0.1c-0.3,0-0.6,0.1-0.9,0.1c-0.2,0-0.4,0-0.5-0.1
			s-0.2-0.2-0.2-0.5c0-0.2,0-0.4,0.1-0.5s0.2-0.2,0.3-0.3c0.4-0.3,0.8-0.6,1.2-0.9c0.4-0.2,0.7-0.5,1-0.8c0.3-0.3,0.5-0.6,0.7-1
			s0.2-0.9,0.2-1.6c0-0.1,0-0.2,0-0.3c0-0.1,0-0.3-0.1-0.4s-0.2-0.2-0.3-0.3s-0.4-0.1-0.6-0.1c-0.3,0-0.5,0-0.8,0.1
			c-0.3,0.1-0.6,0.2-0.8,0.4s-0.5,0.3-0.7,0.5s-0.4,0.4-0.5,0.7C32.1,31.4,32.1,31.4,32,31.4z"/>
		<path d="M39.4,35.7c0-0.5,0-1,0-1.5c0-0.5,0-1.1,0.1-1.7c0-0.6,0.1-1.1,0.2-1.6c0.1-0.5,0.2-1,0.3-1.5c0.1-0.2,0.2-0.5,0.3-0.7
			c0.1-0.2,0.4-0.4,0.7-0.4c0.3,0,0.4,0.1,0.5,0.3c0.1,0.2,0.1,0.4,0.2,0.6c0.1,0.8,0.1,1.5,0.1,2.3c0,0.8,0,1.5,0,2.3
			c0,0.9,0,1.9,0,3c0,1-0.1,2-0.2,2.9c0,0.1,0,0.2-0.1,0.4c0,0.1-0.1,0.2-0.1,0.4s-0.1,0.2-0.2,0.3S40.9,41,40.7,41
			c-0.2,0-0.3,0-0.5-0.2c-0.2-0.1-0.3-0.3-0.4-0.6c-0.1-0.3-0.2-0.6-0.2-1c-0.1-0.4-0.1-0.8-0.1-1.2c0-0.4,0-0.8,0-1.2
			C39.4,36.3,39.4,36,39.4,35.7z"/>
		<path d="M45.5,34.3c0.2,0,0.3,0,0.4,0.1c0.1,0.1,0.2,0.2,0.2,0.2h0.2c0.4,0,0.7,0.1,0.9,0.3c0.2,0.2,0.5,0.4,0.6,0.7
			c0.2,0.3,0.3,0.6,0.3,0.9c0.1,0.3,0.1,0.7,0.1,1c0,0.4,0,0.8-0.1,1.2c-0.1,0.4-0.2,0.8-0.5,1.1s-0.5,0.6-0.9,0.8S45.9,41,45.4,41
			c-0.4,0-0.8-0.1-1.2-0.2c-0.4-0.2-0.7-0.4-1-0.6c-0.3-0.3-0.5-0.6-0.7-1c-0.2-0.4-0.2-0.8-0.2-1.3c0-0.5,0.1-0.9,0.2-1.3
			c0.2-0.4,0.4-0.8,0.6-1.1c0.3-0.3,0.6-0.6,1-0.8C44.6,34.4,45,34.3,45.5,34.3z M46.1,35.8c-0.3,0-0.5-0.1-0.6-0.4
			c-0.1,0-0.2,0.1-0.4,0.3C45,36,45,36.2,44.9,36.5s-0.1,0.5-0.1,0.8c0,0.3,0,0.4,0,0.5c0,0,0,0.2,0,0.4c0,0.2,0,0.4,0.1,0.7
			c0.1,0.2,0.2,0.4,0.3,0.6c0.1,0.2,0.3,0.3,0.6,0.3c0.2,0,0.4-0.1,0.6-0.2c0.2-0.2,0.3-0.4,0.4-0.6c0.1-0.2,0.2-0.5,0.2-0.7
			c0-0.3,0.1-0.5,0.1-0.7c0-0.1,0-0.3,0-0.5s-0.1-0.4-0.1-0.5c-0.1-0.2-0.2-0.3-0.2-0.4S46.3,35.8,46.1,35.8z"/>
		<path d="M51.9,45.5c-0.8,0-1.4-0.2-1.9-0.7s-0.7-1-0.7-1.8c0-0.2,0.1-0.3,0.2-0.4c0.1-0.1,0.3-0.2,0.4-0.2c0.2,0,0.3,0.1,0.4,0.2
			s0.2,0.3,0.2,0.4c0,0.4,0.1,0.7,0.3,0.9c0.2,0.2,0.5,0.3,0.8,0.3c0.1,0,0.2,0,0.3,0s0.2-0.1,0.3-0.2c0.1-0.1,0.2-0.2,0.2-0.4
			c0.1-0.2,0.1-0.4,0.1-0.7c0-0.5-0.1-0.9-0.4-1.1s-0.6-0.3-1.1-0.3h-0.4c-0.2,0-0.3,0-0.5-0.2s-0.2-0.3-0.2-0.5
			c0-0.2,0.1-0.3,0.3-0.5c0,0,0.1,0,0.2-0.1s0.2-0.2,0.4-0.3c-0.7-0.2-1.2-0.5-1.7-0.9s-0.7-1.1-0.7-1.8c0-0.4,0.1-0.8,0.2-1.2
			s0.4-0.7,0.7-1s0.6-0.5,1-0.7c0.4-0.2,0.8-0.2,1.2-0.2c0.2,0,0.4,0,0.5-0.1c0.2-0.1,0.3-0.2,0.5-0.3c0.1-0.1,0.2-0.2,0.3-0.4
			c0.1-0.1,0.1-0.2,0.1-0.3c0-0.2,0.1-0.3,0.2-0.4c0.1-0.1,0.3-0.2,0.4-0.2c0.2,0,0.3,0.1,0.4,0.2s0.2,0.3,0.2,0.4
			c0,0.2,0,0.4-0.2,0.6c-0.1,0.3-0.3,0.7-0.7,1.2c0.3,0.3,0.6,0.6,0.7,1c0.1,0.4,0.2,0.8,0.2,1.2c0,0.4,0,0.8-0.1,1.1
			s-0.2,0.6-0.4,0.9c-0.2,0.3-0.4,0.5-0.6,0.7c-0.2,0.2-0.5,0.4-0.8,0.7c0.3,0.1,0.7,0.2,1,0.3s0.6,0.2,0.8,0.4
			c0.2,0.2,0.4,0.4,0.6,0.7c0.1,0.3,0.2,0.6,0.2,1c0,0.5-0.1,0.9-0.3,1.2s-0.5,0.6-0.8,0.8s-0.7,0.4-1,0.5
			C52.6,45.5,52.2,45.5,51.9,45.5z M51,37.4c0,0.1,0,0.2,0,0.4c0,0.2,0,0.3,0.1,0.5s0.2,0.3,0.3,0.5s0.3,0.2,0.5,0.2
			c0.2,0,0.4-0.1,0.6-0.2c0.2-0.1,0.3-0.3,0.4-0.4s0.2-0.4,0.2-0.6c0-0.2,0.1-0.4,0.1-0.6c0-0.1,0-0.2,0-0.3c0-0.1,0-0.2-0.1-0.4
			c0-0.1-0.1-0.2-0.2-0.3c-0.1-0.1-0.2-0.2-0.2-0.2C52.6,36,52.4,36,52.3,36c-0.2,0-0.3,0-0.4-0.2c-0.1-0.1-0.2-0.2-0.2-0.4
			c-0.2,0-0.3,0.2-0.5,0.6C51,36.4,51,36.9,51,37.4z"/>
	</g>
	<path d="M95,26.1c-0.7,0.9-1.2,1.9-2,2.7c-5.9,6-11.8,11.9-17.8,17.8c-0.5,0.5-0.8,1-0.8,1.8c0.1,2.6,0.1,5.2,0,7.8
		c-0.1,2.4-0.9,4.5-2.4,6.2c-1.7,1.9-3.8,2.8-6.3,2.8c-7.9,0-15.8,0-23.6,0c-2.2,0-3.8,0.7-5.2,2.3c-3.4,3.9-6.9,7.8-10.4,11.6
		c-0.5,0.6-1.1,1.1-1.8,1.3c-2.3,0.8-4.6-1.4-4.1-4c0.5-3.2,1.2-6.3,1.8-9.5c0-0.2,0.1-0.4,0.1-0.6c0.1-1,0-1.2-1.1-1.2
		c-2.4,0-4.9-0.1-7.3,0c-5.3,0.2-8.3-4-8.9-7.7c-0.1-0.7-0.2-1.3-0.2-2C5,46.8,5,38,5,29.2c0-2.2,0.5-4.2,1.8-6
		c1.6-2.4,3.9-3.7,6.8-3.7c4.4,0,8.9,0,13.4,0c12.8,0,25.5,0.1,38.3-0.1c5.8-0.1,9,4.7,9.2,9c0.1,1.2,0,2.4,0,3.8
		c0.4-0.4,0.6-0.6,0.8-0.8c3.6-3.6,7.1-7.1,10.7-10.7c2.1-2,4.1-2.1,6.1,0c0.4,0.4,0.8,0.7,1.1,1.1c0.6,0.9,1.2,1.7,1.8,2.6
		C95,25,95,25.6,95,26.1z M23.5,77.9c0.1,0,0.2,0,0.3,0c0.2-0.2,0.4-0.4,0.6-0.7c3.5-3.9,6.9-7.8,10.4-11.7c1.9-2.1,4.2-3.2,7-3.1
		c7.8,0.1,15.6,0,23.4,0c3.3,0,5.6-1.8,6.1-5c0.3-2.3,0.2-4.7,0.3-7c-0.1,0-0.2-0.1-0.3-0.1c-1.1,1.1-2.2,2.3-3.4,3.4
		c-0.4,0.4-0.9,0.7-1.4,0.8c-2.2,0.6-4.3,1.1-6.5,1.6c-1.6,0.4-2.4-0.4-2-2c0.5-2.1,1-4.3,1.5-6.4c0.1-0.5,0.5-1.1,0.9-1.5
		c3.5-3.5,7-7,10.5-10.6c0.2-0.2,0.5-0.6,0.5-0.9c0-2.1,0.1-4.2,0-6.2c-0.2-3.8-2.7-6.1-6.4-6.1c-2.4,0-4.8,0-7.1,0
		c-14.7,0-29.5,0-44.2,0c-2.6,0-4.4,1.2-5.3,3.5c-0.4,1-0.7,2.3-0.7,3.4c-0.1,4.2,0,8.5,0,12.7c0,4.6,0,9.1,0,13.7
		c0,4.2,2.5,6.7,6.7,6.7c2.5,0,4.9,0,7.4,0c1.8,0,3.1,1.2,3.3,3c0.1,0.6,0,1.2-0.1,1.8c-0.6,3.1-1.2,6.3-1.7,9.4
		C23.3,77.1,23.5,77.5,23.5,77.9z M84.7,26.3c-7.1,7.1-14.2,14.2-21.2,21.2c1.1,1.1,2.2,2.3,3.3,3.4c7.1-7.1,14.2-14.2,21.2-21.3
		C86.9,28.6,85.8,27.4,84.7,26.3z M86.7,24c1.3,1.3,2.4,2.4,3.7,3.7c0.5-0.5,1-1.1,1.6-1.7c0.4-0.4,0.4-0.9,0-1.3
		c-0.7-0.8-1.5-1.5-2.2-2.2c-0.4-0.4-0.8-0.4-1.2,0C87.8,22.9,87.2,23.5,86.7,24z M61.3,52.9c0.9-0.2,1.7-0.4,2.5-0.6
		c-0.7-0.7-1.2-1.2-1.9-1.9C61.8,51.2,61.6,52,61.3,52.9z"/>
	<path d="M32.2,46.2c4.7,0,9.4,0,14.1,0c0.3,0,0.6,0,0.9,0.1c0.5,0.1,0.8,0.6,0.9,1.3c0,0.7-0.2,1.2-0.8,1.4
		c-0.3,0.1-0.5,0.1-0.8,0.1c-9.5,0-19.1,0-28.6,0c-0.2,0-0.4,0-0.6,0c-0.6-0.1-1-0.7-1-1.4c0-0.7,0.4-1.3,1-1.3c0.2,0,0.5,0,0.8,0
		C22.8,46.2,27.5,46.2,32.2,46.2z"/>
	<path d="M35.8,54c5.7,0,11.5,0,17.2,0c0.3,0,0.6,0,0.9,0c0.7,0.1,1.1,0.5,1.2,1.2c0.1,0.7-0.2,1.2-0.9,1.4c-0.3,0.1-0.7,0.1-1,0.1
		c-11.6,0-23.2,0-34.9,0c-0.4,0-0.8,0-1.1-0.2c-0.6-0.2-1-0.8-0.8-1.5c0.1-0.6,0.5-1.1,1.1-1.2c0.3,0,0.6,0,1,0
		C24.2,54,30,54,35.8,54z"/>
</g>
</svg>
