<?xml version="1.0" encoding="utf-8"?>
<!-- Generator: Adobe Illustrator 27.9.0, SVG Export Plug-In . SVG Version: 6.00 Build 0)  -->
<svg version="1.1" id="Layer_1" xmlns="http://www.w3.org/2000/svg" xmlns:xlink="http://www.w3.org/1999/xlink" x="0px" y="0px"
	 viewBox="0 0 100 100" style="enable-background:new 0 0 100 100;" xml:space="preserve">
<style type="text/css">
	.st0{fill:#FFFFFF;}
</style>
<g>
	<g>
		<path class="st0" d="M18.51,34.49c0.15,0,0.34,0,0.58-0.01c0.24-0.01,0.48-0.02,0.73-0.03c0.25-0.01,0.49-0.04,0.7-0.07
			c0.22-0.03,0.37-0.08,0.45-0.13c0.11-0.08,0.23-0.12,0.37-0.12c0.16,0,0.31,0.06,0.43,0.18c0.12,0.12,0.18,0.26,0.18,0.43
			c0,0.19-0.09,0.35-0.27,0.49c-0.16,0.12-0.38,0.22-0.64,0.29s-0.55,0.12-0.86,0.14c-0.31,0.03-0.61,0.04-0.91,0.05
			c-0.3,0.01-0.56,0.01-0.77,0.01h-0.14c0.03,0.45,0.05,0.9,0.06,1.36c0.01,0.46,0.02,0.88,0.02,1.27c0,0.15,0,0.3,0,0.44
			c0,0.14-0.01,0.28-0.02,0.4c-0.01,0.22-0.03,0.4-0.04,0.56c-0.01,0.16-0.03,0.29-0.06,0.4c-0.04,0.2-0.12,0.39-0.24,0.56
			c-0.12,0.17-0.3,0.25-0.53,0.25c-0.11,0-0.23-0.03-0.37-0.09c-0.14-0.06-0.27-0.19-0.39-0.38c-0.19-0.3-0.34-0.73-0.46-1.31
			c-0.12-0.57-0.21-1.18-0.28-1.84c-0.07-0.65-0.12-1.3-0.14-1.95c-0.03-0.65-0.04-1.18-0.04-1.6c0-0.53,0.02-1.08,0.07-1.66
			c0.05-0.58,0.14-1.12,0.29-1.62c0.14-0.5,0.35-0.94,0.63-1.31c0.28-0.37,0.64-0.61,1.09-0.72c0.33-0.08,0.66-0.14,0.99-0.16
			c0.33-0.03,0.66-0.04,0.99-0.04c0.56,0,1.07,0.02,1.53,0.07c0.46,0.05,0.75,0.09,0.86,0.11c0.3,0.1,0.45,0.29,0.45,0.59
			c0,0.16-0.06,0.31-0.18,0.43c-0.12,0.12-0.27,0.18-0.43,0.18c-0.07,0-0.12-0.01-0.16-0.02c-0.11-0.03-0.36-0.06-0.74-0.09
			c-0.39-0.03-0.83-0.05-1.32-0.05c-0.12,0-0.28,0-0.47,0.01c-0.19,0.01-0.38,0.02-0.58,0.04c-0.2,0.02-0.38,0.05-0.56,0.09
			c-0.18,0.04-0.33,0.09-0.45,0.16c0.01,0.01,0.02,0.03,0.02,0.06c0.11,0.77,0.19,1.55,0.24,2.31c0.05,0.77,0.11,1.54,0.16,2.31
			H18.51z"/>
		<path class="st0" d="M27.44,40.95c-0.15,0-0.27-0.04-0.37-0.11c-0.1-0.07-0.17-0.17-0.21-0.28c-0.05-0.11-0.08-0.23-0.1-0.36
			c-0.02-0.13-0.04-0.25-0.05-0.36c-0.16,0.27-0.37,0.52-0.63,0.75c-0.26,0.23-0.56,0.35-0.92,0.35c-0.49,0-0.89-0.13-1.21-0.38
			c-0.32-0.25-0.58-0.57-0.77-0.95c-0.2-0.38-0.34-0.8-0.42-1.24c-0.08-0.45-0.12-0.86-0.12-1.24c0-0.23,0.02-0.51,0.05-0.84
			c0.03-0.33,0.11-0.64,0.21-0.94c0.11-0.3,0.26-0.56,0.45-0.77c0.19-0.22,0.44-0.33,0.75-0.33c0.29,0,0.5,0.12,0.63,0.35
			c0.14,0.23,0.23,0.5,0.28,0.81c0.05,0.31,0.07,0.62,0.06,0.94c-0.01,0.32-0.01,0.57-0.01,0.76c0,0.15,0,0.37-0.01,0.65
			c-0.01,0.29-0.01,0.57-0.01,0.86c0,0.29,0.01,0.53,0.04,0.74c0.03,0.21,0.08,0.32,0.16,0.32c0.15,0,0.29-0.09,0.42-0.29
			c0.13-0.19,0.24-0.43,0.35-0.72c0.1-0.29,0.2-0.62,0.29-0.98c0.09-0.36,0.17-0.71,0.23-1.06s0.13-0.67,0.18-0.96
			c0.05-0.29,0.1-0.51,0.14-0.66c0.05-0.19,0.14-0.36,0.25-0.51c0.12-0.15,0.29-0.22,0.52-0.22c0.31,0,0.56,0.11,0.73,0.32
			c0.18,0.21,0.31,0.47,0.4,0.76c0.09,0.3,0.15,0.61,0.17,0.93c0.03,0.32,0.04,0.59,0.04,0.83c0,0.24-0.02,0.58-0.05,1.01
			c-0.03,0.43-0.1,0.85-0.2,1.26c-0.1,0.41-0.25,0.78-0.46,1.09C28.05,40.8,27.78,40.95,27.44,40.95z"/>
		<path class="st0" d="M38.86,37.63c0,0.57-0.14,1.07-0.41,1.49c-0.27,0.42-0.61,0.77-1.02,1.04c-0.41,0.27-0.85,0.48-1.34,0.61
			c-0.48,0.14-0.94,0.2-1.38,0.2c-0.52,0-1.01-0.08-1.49-0.24c-0.48-0.16-0.91-0.39-1.3-0.69c-0.01,0.14-0.04,0.29-0.07,0.47
			c-0.03,0.18-0.08,0.34-0.14,0.5c-0.06,0.16-0.15,0.29-0.25,0.39c-0.11,0.1-0.26,0.15-0.45,0.15c-0.08,0-0.19-0.02-0.33-0.07
			c-0.14-0.05-0.26-0.16-0.37-0.34c-0.1-0.16-0.18-0.4-0.25-0.7c-0.08-0.31-0.14-0.65-0.18-1.02c-0.05-0.37-0.09-0.76-0.11-1.17
			c-0.03-0.41-0.05-0.8-0.06-1.18c-0.01-0.38-0.02-0.73-0.03-1.05c-0.01-0.32-0.01-0.57-0.01-0.76c0-0.39,0-0.85,0.01-1.38
			c0.01-0.52,0.03-1.06,0.07-1.61c0.04-0.55,0.09-1.08,0.16-1.6c0.07-0.52,0.16-0.96,0.29-1.33c0.07-0.23,0.18-0.45,0.33-0.66
			c0.15-0.21,0.37-0.32,0.65-0.32c0.26,0,0.43,0.1,0.52,0.31c0.09,0.2,0.15,0.41,0.17,0.63c0.01,0.04,0.02,0.08,0.02,0.12
			c0,0.04,0.01,0.09,0.02,0.14c0.41-0.37,0.88-0.66,1.42-0.89c0.54-0.22,1.09-0.34,1.66-0.34c0.41,0,0.81,0.06,1.21,0.19
			c0.4,0.13,0.76,0.32,1.09,0.57c0.33,0.25,0.59,0.56,0.79,0.94c0.2,0.37,0.31,0.81,0.31,1.3c0,0.44-0.08,0.84-0.25,1.2
			c-0.16,0.37-0.38,0.71-0.65,1.02s-0.58,0.6-0.94,0.86c-0.35,0.26-0.72,0.49-1.1,0.69c0.45,0,0.88,0.04,1.28,0.13
			c0.41,0.09,0.77,0.23,1.08,0.43c0.31,0.2,0.56,0.46,0.75,0.77C38.76,36.76,38.86,37.15,38.86,37.63z M32.03,31.41
			c0.03,0.69,0.05,1.38,0.06,2.05c0.01,0.67,0.02,1.36,0.02,2.05c0,0.46,0,0.95-0.01,1.47c-0.01,0.52-0.02,1.01-0.05,1.49
			c0.31,0.39,0.71,0.71,1.18,0.94c0.48,0.23,0.97,0.35,1.47,0.35c1.16-0.03,1.73-0.69,1.73-1.98c0-0.5-0.1-0.87-0.31-1.1
			c-0.2-0.23-0.56-0.35-1.06-0.35c-0.31,0-0.62,0.03-0.92,0.08c-0.3,0.05-0.6,0.08-0.92,0.08c-0.19,0-0.37-0.04-0.53-0.13
			c-0.16-0.09-0.25-0.24-0.25-0.46c-0.01-0.23,0.03-0.41,0.14-0.55c0.11-0.14,0.21-0.24,0.31-0.33c0.41-0.34,0.8-0.63,1.17-0.88
			c0.37-0.24,0.7-0.51,0.98-0.79c0.28-0.29,0.5-0.63,0.67-1.04c0.17-0.41,0.25-0.94,0.25-1.59c0-0.08-0.01-0.19-0.02-0.32
			c-0.01-0.13-0.05-0.26-0.12-0.39c-0.07-0.13-0.18-0.24-0.33-0.33c-0.15-0.09-0.36-0.13-0.63-0.13c-0.26,0-0.53,0.05-0.81,0.14
			c-0.29,0.1-0.56,0.22-0.82,0.38c-0.26,0.16-0.49,0.34-0.7,0.55c-0.21,0.21-0.37,0.44-0.48,0.68
			C32.07,31.35,32.06,31.38,32.03,31.41z"/>
		<path class="st0" d="M39.39,35.71c0-0.46,0-0.97,0.01-1.51c0.01-0.54,0.03-1.09,0.07-1.65c0.04-0.56,0.1-1.1,0.17-1.64
			c0.07-0.54,0.17-1.03,0.3-1.48c0.07-0.23,0.17-0.47,0.32-0.7c0.14-0.24,0.36-0.36,0.66-0.36c0.27,0,0.44,0.11,0.52,0.33
			c0.07,0.22,0.12,0.44,0.15,0.65c0.07,0.77,0.1,1.54,0.11,2.3c0.01,0.76,0.01,1.53,0.01,2.3c0,0.92-0.01,1.91-0.02,2.96
			c-0.01,1.05-0.07,2.03-0.18,2.94c-0.01,0.12-0.03,0.25-0.06,0.38c-0.03,0.13-0.07,0.25-0.12,0.36c-0.05,0.11-0.13,0.2-0.22,0.27
			c-0.09,0.07-0.22,0.1-0.37,0.1c-0.15,0-0.31-0.05-0.47-0.15c-0.16-0.1-0.31-0.31-0.43-0.62c-0.11-0.27-0.19-0.6-0.25-1
			c-0.06-0.39-0.11-0.8-0.13-1.22c-0.03-0.42-0.05-0.83-0.05-1.22C39.39,36.34,39.39,36,39.39,35.71z"/>
		<path class="st0" d="M45.47,34.27c0.15,0,0.27,0.04,0.38,0.11c0.1,0.07,0.17,0.15,0.19,0.23h0.16c0.37,0,0.68,0.09,0.93,0.28
			c0.25,0.18,0.45,0.42,0.6,0.7c0.15,0.29,0.26,0.6,0.33,0.94c0.07,0.34,0.1,0.66,0.1,0.96c0,0.37-0.05,0.75-0.14,1.16
			c-0.1,0.41-0.25,0.78-0.47,1.12c-0.22,0.34-0.51,0.62-0.87,0.85s-0.8,0.34-1.31,0.34c-0.41,0-0.8-0.07-1.16-0.22
			c-0.37-0.15-0.69-0.36-0.97-0.63c-0.28-0.27-0.5-0.6-0.66-1c-0.16-0.39-0.24-0.84-0.24-1.33c0-0.45,0.07-0.88,0.22-1.31
			c0.15-0.42,0.36-0.8,0.64-1.12c0.28-0.33,0.61-0.59,1-0.78C44.58,34.36,45,34.27,45.47,34.27z M46.1,35.84
			c-0.26,0-0.46-0.12-0.59-0.37c-0.14,0-0.25,0.11-0.36,0.32c-0.1,0.21-0.18,0.45-0.25,0.71s-0.11,0.53-0.14,0.78
			c-0.03,0.26-0.05,0.43-0.05,0.51c0,0.05,0.01,0.18,0.02,0.39c0.01,0.2,0.05,0.42,0.11,0.65c0.06,0.23,0.16,0.44,0.3,0.62
			c0.13,0.18,0.33,0.28,0.57,0.28c0.23,0,0.42-0.08,0.58-0.24c0.16-0.16,0.28-0.36,0.38-0.6c0.09-0.24,0.16-0.49,0.2-0.74
			c0.04-0.26,0.06-0.48,0.06-0.67c0-0.14-0.01-0.3-0.03-0.48c-0.02-0.18-0.06-0.36-0.12-0.53c-0.06-0.17-0.15-0.32-0.25-0.44
			S46.27,35.84,46.1,35.84z"/>
		<path class="st0" d="M51.87,45.5c-0.77,0-1.4-0.23-1.88-0.69c-0.48-0.46-0.71-1.05-0.71-1.77c0-0.16,0.06-0.31,0.17-0.43
			c0.12-0.12,0.26-0.18,0.44-0.18c0.16,0,0.31,0.06,0.43,0.18c0.12,0.12,0.18,0.27,0.18,0.43c0,0.38,0.11,0.68,0.34,0.91
			c0.22,0.22,0.49,0.34,0.81,0.34c0.11,0,0.22-0.02,0.34-0.05c0.12-0.03,0.22-0.1,0.31-0.19c0.1-0.1,0.18-0.23,0.25-0.4
			c0.07-0.17,0.1-0.4,0.1-0.68c0-0.54-0.13-0.9-0.39-1.08c-0.26-0.18-0.63-0.28-1.1-0.31h-0.41c-0.19,0-0.35-0.05-0.48-0.16
			c-0.13-0.11-0.19-0.27-0.17-0.47c0-0.19,0.09-0.35,0.27-0.49c0.03-0.01,0.09-0.05,0.19-0.12c0.1-0.07,0.23-0.16,0.38-0.26
			c-0.68-0.15-1.24-0.46-1.68-0.92c-0.44-0.46-0.66-1.06-0.66-1.79c0-0.44,0.08-0.84,0.25-1.21c0.17-0.37,0.4-0.7,0.68-0.98
			s0.62-0.5,1-0.65c0.38-0.16,0.78-0.23,1.2-0.23c0.19,0,0.37-0.04,0.55-0.12c0.18-0.08,0.33-0.18,0.47-0.31
			c0.14-0.12,0.25-0.24,0.33-0.37c0.08-0.12,0.12-0.22,0.12-0.31c0-0.16,0.06-0.31,0.17-0.43c0.12-0.12,0.26-0.18,0.44-0.18
			c0.16,0,0.31,0.06,0.43,0.18c0.12,0.12,0.18,0.26,0.18,0.43c0,0.15-0.05,0.36-0.15,0.62c-0.1,0.27-0.35,0.65-0.74,1.15
			c0.33,0.26,0.56,0.59,0.69,0.99c0.14,0.4,0.2,0.8,0.2,1.19c0,0.41-0.05,0.77-0.14,1.08c-0.09,0.31-0.23,0.6-0.41,0.86
			c-0.18,0.26-0.39,0.5-0.63,0.71c-0.25,0.22-0.51,0.44-0.8,0.67c0.35,0.07,0.69,0.16,1,0.27s0.59,0.25,0.83,0.44
			c0.24,0.18,0.43,0.41,0.57,0.67c0.14,0.27,0.21,0.59,0.21,0.97c0,0.46-0.1,0.86-0.3,1.2c-0.2,0.34-0.45,0.62-0.76,0.85
			s-0.66,0.39-1.03,0.5C52.58,45.45,52.22,45.5,51.87,45.5z M50.97,37.36c0,0.1,0.01,0.23,0.02,0.4c0.01,0.17,0.05,0.34,0.12,0.51
			c0.07,0.17,0.17,0.32,0.3,0.45c0.13,0.13,0.3,0.19,0.52,0.19c0.23,0,0.42-0.06,0.58-0.17c0.16-0.12,0.29-0.26,0.39-0.44
			c0.1-0.18,0.18-0.37,0.22-0.58c0.05-0.21,0.07-0.41,0.07-0.6c0-0.09-0.01-0.2-0.02-0.33c-0.01-0.12-0.04-0.24-0.08-0.37
			c-0.04-0.12-0.09-0.23-0.16-0.34c-0.07-0.1-0.15-0.17-0.24-0.21c-0.11,0.1-0.25,0.14-0.41,0.14c-0.15,0-0.28-0.05-0.4-0.15
			c-0.12-0.1-0.19-0.23-0.21-0.38c-0.15,0.05-0.3,0.25-0.46,0.6C51.05,36.44,50.97,36.86,50.97,37.36z"/>
	</g>
	<path class="st0" d="M95,26.1c-0.67,0.9-1.24,1.9-2.02,2.69c-5.9,5.95-11.83,11.87-17.77,17.78c-0.53,0.53-0.79,1.05-0.78,1.83
		c0.05,2.61,0.06,5.22-0.01,7.82c-0.06,2.36-0.88,4.47-2.44,6.25c-1.66,1.9-3.76,2.8-6.29,2.79c-7.88-0.02-15.76,0.03-23.64-0.03
		c-2.17-0.02-3.82,0.74-5.23,2.35c-3.41,3.9-6.87,7.77-10.35,11.61c-0.49,0.55-1.11,1.1-1.79,1.35c-2.28,0.84-4.58-1.41-4.13-4.01
		c0.55-3.17,1.16-6.33,1.75-9.5c0.04-0.2,0.08-0.4,0.1-0.61c0.12-1.01-0.03-1.18-1.06-1.18c-2.43,0-4.87-0.07-7.29,0.01
		c-5.32,0.19-8.29-3.97-8.89-7.7c-0.11-0.66-0.17-1.34-0.17-2.01C5,46.77,5,37.98,5,29.2c0-2.16,0.53-4.18,1.77-5.96
		c1.64-2.36,3.86-3.68,6.81-3.67c4.45,0.02,8.91,0.01,13.36,0.01c12.77,0,25.55,0.12,38.32-0.06c5.77-0.08,9,4.66,9.17,8.98
		c0.05,1.19,0.01,2.38,0.01,3.79c0.38-0.36,0.61-0.56,0.83-0.78c3.56-3.56,7.13-7.12,10.69-10.69c2.05-2.05,4.05-2.06,6.09-0.03
		c0.37,0.37,0.79,0.71,1.11,1.13c0.64,0.85,1.23,1.74,1.85,2.61C95,25.05,95,25.58,95,26.1z M23.5,77.88
		c0.11,0.01,0.21,0.03,0.32,0.04c0.22-0.23,0.44-0.45,0.65-0.69c3.47-3.89,6.95-7.77,10.4-11.68c1.88-2.13,4.17-3.15,7.04-3.13
		c7.79,0.06,15.59,0.02,23.38,0.02c3.28,0,5.61-1.75,6.1-4.99c0.35-2.31,0.23-4.7,0.33-7.05c-0.09-0.03-0.17-0.06-0.26-0.09
		c-1.13,1.13-2.23,2.29-3.39,3.39c-0.39,0.37-0.89,0.7-1.39,0.84c-2.15,0.57-4.32,1.06-6.48,1.57c-1.6,0.38-2.38-0.41-2.01-2.01
		c0.5-2.14,0.97-4.28,1.53-6.4c0.14-0.53,0.47-1.08,0.86-1.47c3.5-3.55,7.03-7.05,10.54-10.59c0.24-0.25,0.49-0.62,0.5-0.94
		c0.04-2.08,0.08-4.16-0.01-6.24c-0.17-3.75-2.66-6.07-6.41-6.07c-2.37,0-4.75,0-7.12,0c-14.74,0-29.47,0.02-44.21-0.02
		c-2.63-0.01-4.37,1.22-5.33,3.52c-0.44,1.05-0.67,2.26-0.69,3.4c-0.08,4.25-0.03,8.5-0.03,12.74c0,4.57-0.02,9.14,0.01,13.71
		c0.03,4.24,2.53,6.7,6.71,6.7c2.46,0,4.92-0.01,7.38,0.01c1.79,0.01,3.12,1.21,3.31,2.99c0.06,0.6,0.01,1.23-0.1,1.83
		c-0.56,3.14-1.17,6.27-1.73,9.41C23.34,77.06,23.47,77.48,23.5,77.88z M84.65,26.31c-7.1,7.11-14.22,14.23-21.23,21.24
		c1.08,1.1,2.23,2.26,3.31,3.37c7.07-7.07,14.18-14.19,21.25-21.26C86.9,28.57,85.77,27.43,84.65,26.31z M86.68,23.96
		c1.26,1.26,2.4,2.41,3.65,3.66c0.48-0.52,1.02-1.1,1.55-1.68c0.4-0.43,0.43-0.89,0.01-1.32c-0.73-0.75-1.48-1.49-2.23-2.23
		c-0.39-0.38-0.83-0.41-1.25-0.04C87.8,22.9,87.22,23.46,86.68,23.96z M61.35,52.93c0.94-0.22,1.69-0.4,2.47-0.59
		c-0.67-0.68-1.23-1.25-1.86-1.9C61.77,51.23,61.59,51.98,61.35,52.93z"/>
	<path class="st0" d="M32.22,46.24c4.7,0,9.4,0,14.1,0c0.3,0,0.6-0.01,0.89,0.06c0.54,0.13,0.84,0.58,0.86,1.29
		c0.02,0.7-0.24,1.19-0.77,1.38c-0.26,0.09-0.54,0.1-0.82,0.1c-9.54,0-19.08,0-28.61,0c-0.21,0-0.41,0-0.62-0.03
		c-0.62-0.12-1.02-0.68-1.01-1.42c0.01-0.74,0.42-1.27,1.05-1.35c0.25-0.03,0.5-0.02,0.76-0.02C22.78,46.24,27.5,46.24,32.22,46.24z
		"/>
	<path class="st0" d="M35.77,54.01c5.74,0,11.47,0,17.21,0c0.29,0,0.59-0.01,0.88,0.03c0.71,0.09,1.11,0.55,1.18,1.22
		c0.07,0.68-0.25,1.21-0.91,1.43c-0.32,0.11-0.69,0.13-1.04,0.13c-11.62,0.01-23.24,0.01-34.86,0c-0.37,0-0.78-0.02-1.12-0.15
		c-0.64-0.25-0.95-0.79-0.84-1.48c0.1-0.64,0.49-1.06,1.15-1.15c0.32-0.04,0.64-0.03,0.96-0.03C24.18,54.01,29.97,54.01,35.77,54.01
		z"/>
</g>
</svg>
