<?xml version="1.0" encoding="utf-8"?>
<!-- Generator: Adobe Illustrator 27.9.0, SVG Export Plug-In . SVG Version: 6.00 Build 0)  -->
<svg version="1.1" id="Layer_1" xmlns="http://www.w3.org/2000/svg" xmlns:xlink="http://www.w3.org/1999/xlink" x="0px" y="0px"
	 viewBox="0 0 100 100" style="enable-background:new 0 0 100 100;" xml:space="preserve">
<style type="text/css">
	.st0{fill:url(#SVGID_1_);}
	.st1{fill:url(#SVGID_00000051377823421363783810000001458139610243883919_);}
	.st2{fill:url(#SVGID_00000147212844687713505300000007755875672242744989_);}
	.st3{fill:url(#SVGID_00000092436709056963520350000017752850093198497470_);}
	.st4{fill:url(#SVGID_00000058567856623186871780000017819863286120243841_);}
	.st5{fill:url(#SVGID_00000162336619706490637640000015291990299076316549_);}
	.st6{fill:url(#SVGID_00000161616310030459997390000011722115850217246127_);}
	.st7{fill:url(#SVGID_00000160871271752830560990000004416100807798048131_);}
	.st8{fill:url(#SVGID_00000174583657787179559320000000658768133889740475_);}
</style>
<g>
	<g>
		<linearGradient id="SVGID_1_" gradientUnits="userSpaceOnUse" x1="15.8112" y1="34.6477" x2="22.7112" y2="34.6477">
			<stop  offset="0" style="stop-color:#FFBB5C"/>
			<stop  offset="1" style="stop-color:#FF9B50"/>
		</linearGradient>
		<path class="st0" d="M18.5,34.5c0.1,0,0.3,0,0.6,0s0.5,0,0.7,0s0.5,0,0.7-0.1c0.2,0,0.4-0.1,0.5-0.1c0.1-0.1,0.2-0.1,0.4-0.1
			c0.2,0,0.3,0.1,0.4,0.2s0.2,0.3,0.2,0.4c0,0.2-0.1,0.3-0.3,0.5c-0.2,0.1-0.4,0.2-0.6,0.3s-0.5,0.1-0.9,0.1c-0.3,0-0.6,0-0.9,0
			s-0.6,0-0.8,0h-0.1c0,0.5,0,0.9,0.1,1.4s0,0.9,0,1.3c0,0.2,0,0.3,0,0.4s0,0.3,0,0.4c0,0.2,0,0.4,0,0.6s0,0.3-0.1,0.4
			c0,0.2-0.1,0.4-0.2,0.6c-0.1,0.2-0.3,0.2-0.5,0.2c-0.1,0-0.2,0-0.4-0.1c-0.1-0.1-0.3-0.2-0.4-0.4c-0.2-0.3-0.3-0.7-0.5-1.3
			c-0.1-0.6-0.2-1.2-0.3-1.8c-0.1-0.7-0.1-1.3-0.1-2c0-0.7,0-1.2,0-1.6c0-0.5,0-1.1,0.1-1.7c0.1-0.6,0.1-1.1,0.3-1.6
			c0.1-0.5,0.4-0.9,0.6-1.3c0.3-0.4,0.6-0.6,1.1-0.7c0.3-0.1,0.7-0.1,1-0.2c0.3,0,0.7,0,1,0c0.6,0,1.1,0,1.5,0.1
			c0.5,0,0.8,0.1,0.9,0.1c0.3,0.1,0.5,0.3,0.5,0.6c0,0.2-0.1,0.3-0.2,0.4s-0.3,0.2-0.4,0.2c-0.1,0-0.1,0-0.2,0
			c-0.1,0-0.4-0.1-0.7-0.1c-0.4,0-0.8,0-1.3,0c-0.1,0-0.3,0-0.5,0c-0.2,0-0.4,0-0.6,0s-0.4,0-0.6,0.1s-0.3,0.1-0.5,0.2
			c0,0,0,0,0,0.1c0.1,0.8,0.2,1.5,0.2,2.3c0,0.8,0.1,1.5,0.2,2.3L18.5,34.5L18.5,34.5z"/>
		
			<linearGradient id="SVGID_00000096059336726768105780000010417704810311721123_" gradientUnits="userSpaceOnUse" x1="22.5812" y1="37.6277" x2="28.9012" y2="37.6277">
			<stop  offset="0" style="stop-color:#FFBB5C"/>
			<stop  offset="1" style="stop-color:#FF9B50"/>
		</linearGradient>
		<path style="fill:url(#SVGID_00000096059336726768105780000010417704810311721123_);" d="M27.4,41c-0.1,0-0.3,0-0.4-0.1
			s-0.2-0.2-0.2-0.3c0-0.1-0.1-0.2-0.1-0.4s0-0.2,0-0.4c-0.2,0.3-0.4,0.5-0.6,0.8c-0.3,0.2-0.6,0.3-0.9,0.3c-0.5,0-0.9-0.1-1.2-0.4
			c-0.3-0.2-0.6-0.6-0.8-1c-0.2-0.4-0.3-0.8-0.4-1.2c-0.1-0.5-0.1-0.9-0.1-1.2c0-0.2,0-0.5,0-0.8c0-0.3,0.1-0.6,0.2-0.9
			c0.1-0.3,0.3-0.6,0.5-0.8c0.2-0.2,0.4-0.3,0.8-0.3c0.3,0,0.5,0.1,0.6,0.3c0.1,0.2,0.2,0.5,0.3,0.8c0,0.3,0.1,0.6,0.1,0.9
			s0,0.6,0,0.8c0,0.2,0,0.4,0,0.7c0,0.3,0,0.6,0,0.9s0,0.5,0,0.7c0,0.2,0.1,0.3,0.2,0.3c0.1,0,0.3-0.1,0.4-0.3
			c0.1-0.2,0.2-0.4,0.4-0.7c0.1-0.3,0.2-0.6,0.3-1s0.2-0.7,0.2-1.1s0.1-0.7,0.2-1c0-0.3,0.1-0.5,0.1-0.7c0-0.2,0.1-0.4,0.2-0.5
			c0.1-0.2,0.3-0.2,0.5-0.2c0.3,0,0.6,0.1,0.7,0.3c0.2,0.2,0.3,0.5,0.4,0.8c0.1,0.3,0.1,0.6,0.2,0.9c0,0.3,0,0.6,0,0.8s0,0.6,0,1
			c0,0.4-0.1,0.8-0.2,1.3s-0.2,0.8-0.5,1.1C28,40.8,27.7,41,27.4,41z"/>
		
			<linearGradient id="SVGID_00000097484762531934937660000012984004208756627903_" gradientUnits="userSpaceOnUse" x1="29.6112" y1="34.9677" x2="38.8012" y2="34.9677">
			<stop  offset="0" style="stop-color:#FFBB5C"/>
			<stop  offset="1" style="stop-color:#FF9B50"/>
		</linearGradient>
		<path style="fill:url(#SVGID_00000097484762531934937660000012984004208756627903_);" d="M38.8,37.7c0,0.6-0.1,1.1-0.4,1.5
			c-0.3,0.4-0.6,0.8-1,1s-0.8,0.5-1.3,0.6c-0.5,0.1-0.9,0.2-1.4,0.2c-0.5,0-1-0.1-1.5-0.2c-0.5-0.2-0.9-0.4-1.3-0.7
			c0,0.1,0,0.3-0.1,0.5c0,0.2-0.1,0.3-0.1,0.5s-0.1,0.3-0.2,0.4c-0.1,0.1-0.3,0.2-0.5,0.2c-0.1,0-0.2,0-0.3-0.1s-0.3-0.2-0.4-0.3
			c-0.1-0.2-0.2-0.4-0.2-0.7c-0.1-0.3-0.1-0.7-0.2-1c0-0.4-0.1-0.8-0.1-1.2c0-0.4,0-0.8-0.1-1.2s0-0.7,0-1s0-0.6,0-0.8
			c0-0.4,0-0.8,0-1.4c0-0.5,0-1.1,0.1-1.6c0-0.5,0.1-1.1,0.2-1.6s0.2-1,0.3-1.3c0.1-0.2,0.2-0.5,0.3-0.7s0.4-0.3,0.6-0.3
			c0.3,0,0.4,0.1,0.5,0.3c0.1,0.2,0.1,0.4,0.2,0.6c0,0,0,0.1,0,0.1s0,0.1,0,0.1c0.4-0.4,0.9-0.7,1.4-0.9c0.5-0.2,1.1-0.3,1.7-0.3
			c0.4,0,0.8,0.1,1.2,0.2c0.4,0.1,0.8,0.3,1.1,0.6s0.6,0.6,0.8,0.9c0.2,0.4,0.3,0.8,0.3,1.3c0,0.4-0.1,0.8-0.2,1.2
			c-0.2,0.4-0.4,0.7-0.7,1s-0.6,0.6-0.9,0.9c-0.3,0.3-0.7,0.5-1.1,0.7c0.5,0,0.9,0,1.3,0.1c0.4,0.1,0.8,0.2,1.1,0.4s0.6,0.5,0.8,0.8
			C38.7,36.8,38.8,37.2,38.8,37.7z M32,31.4c0,0.7,0,1.4,0.1,2c0,0.7,0,1.4,0,2c0,0.5,0,1,0,1.5s0,1,0,1.5c0.3,0.4,0.7,0.7,1.2,0.9
			c0.5,0.2,1,0.3,1.5,0.3c1.2,0,1.7-0.7,1.7-2c0-0.5-0.1-0.9-0.3-1.1c-0.2-0.2-0.6-0.3-1.1-0.3c-0.3,0-0.6,0-0.9,0.1
			c-0.3,0-0.6,0.1-0.9,0.1c-0.2,0-0.4,0-0.5-0.1s-0.2-0.2-0.2-0.5c0-0.2,0-0.4,0.1-0.5s0.2-0.2,0.3-0.3c0.4-0.3,0.8-0.6,1.2-0.9
			c0.4-0.2,0.7-0.5,1-0.8c0.3-0.3,0.5-0.6,0.7-1s0.2-0.9,0.2-1.6c0-0.1,0-0.2,0-0.3c0-0.1,0-0.3-0.1-0.4s-0.2-0.2-0.3-0.3
			s-0.4-0.1-0.6-0.1c-0.3,0-0.5,0-0.8,0.1c-0.3,0.1-0.6,0.2-0.8,0.4s-0.5,0.3-0.7,0.5s-0.4,0.4-0.5,0.7C32,31.4,32,31.4,32,31.4z"/>
		
			<linearGradient id="SVGID_00000096040564376009063470000006356103260329582487_" gradientUnits="userSpaceOnUse" x1="39.3312" y1="34.6927" x2="41.6512" y2="34.6927">
			<stop  offset="0" style="stop-color:#FFBB5C"/>
			<stop  offset="1" style="stop-color:#FF9B50"/>
		</linearGradient>
		<path style="fill:url(#SVGID_00000096040564376009063470000006356103260329582487_);" d="M39.3,35.7c0-0.5,0-1,0-1.5
			c0-0.5,0-1.1,0.1-1.7s0.1-1.1,0.2-1.6c0.1-0.5,0.2-1,0.3-1.5c0.1-0.2,0.2-0.5,0.3-0.7c0.1-0.2,0.4-0.4,0.7-0.4
			c0.3,0,0.4,0.1,0.5,0.3c0.1,0.2,0.1,0.4,0.2,0.6c0.1,0.8,0.1,1.5,0.1,2.3c0,0.8,0,1.5,0,2.3c0,0.9,0,1.9,0,3c0,1-0.1,2-0.2,2.9
			c0,0.1,0,0.2-0.1,0.4c0,0.1-0.1,0.2-0.1,0.4s-0.1,0.2-0.2,0.3S40.8,41,40.7,41c-0.2,0-0.3,0-0.5-0.2c-0.2-0.1-0.3-0.3-0.4-0.6
			c-0.1-0.3-0.2-0.6-0.2-1c-0.1-0.4-0.1-0.8-0.1-1.2c0-0.4,0-0.8,0-1.2C39.3,36.4,39.3,36,39.3,35.7z"/>
		
			<linearGradient id="SVGID_00000011750399411852104670000001643819988446148251_" gradientUnits="userSpaceOnUse" x1="42.2812" y1="37.6427" x2="48.1012" y2="37.6427">
			<stop  offset="0" style="stop-color:#FFBB5C"/>
			<stop  offset="1" style="stop-color:#FF9B50"/>
		</linearGradient>
		<path style="fill:url(#SVGID_00000011750399411852104670000001643819988446148251_);" d="M45.4,34.3c0.2,0,0.3,0,0.4,0.1
			c0.1,0.1,0.2,0.2,0.2,0.2h0.2c0.4,0,0.7,0.1,0.9,0.3c0.2,0.2,0.5,0.4,0.6,0.7c0.2,0.3,0.3,0.6,0.3,0.9c0.1,0.3,0.1,0.7,0.1,1
			c0,0.4,0,0.8-0.1,1.2c-0.1,0.4-0.2,0.8-0.5,1.1s-0.5,0.6-0.9,0.8S45.8,41,45.3,41c-0.4,0-0.8-0.1-1.2-0.2c-0.4-0.2-0.7-0.4-1-0.6
			c-0.3-0.3-0.5-0.6-0.7-1c-0.2-0.4-0.2-0.8-0.2-1.3c0-0.5,0.1-0.9,0.2-1.3c0.2-0.4,0.4-0.8,0.6-1.1c0.3-0.3,0.6-0.6,1-0.8
			C44.5,34.4,44.9,34.3,45.4,34.3z M46,35.9c-0.3,0-0.5-0.1-0.6-0.4c-0.1,0-0.2,0.1-0.4,0.3c-0.1,0.2-0.2,0.5-0.2,0.7
			s-0.1,0.5-0.1,0.8c0,0.3,0,0.4,0,0.5c0,0,0,0.2,0,0.4c0,0.2,0,0.4,0.1,0.7c0.1,0.2,0.2,0.4,0.3,0.6c0.1,0.2,0.3,0.3,0.6,0.3
			c0.2,0,0.4-0.1,0.6-0.2c0.2-0.2,0.3-0.4,0.4-0.6c0.1-0.2,0.2-0.5,0.2-0.7c0-0.3,0.1-0.5,0.1-0.7c0-0.1,0-0.3,0-0.5
			s-0.1-0.4-0.1-0.5c-0.1-0.2-0.2-0.3-0.2-0.4S46.2,35.9,46,35.9z"/>
		
			<linearGradient id="SVGID_00000051345726958488868410000011876506887206785184_" gradientUnits="userSpaceOnUse" x1="48.5412" y1="39.0677" x2="54.9912" y2="39.0677">
			<stop  offset="0" style="stop-color:#FFBB5C"/>
			<stop  offset="1" style="stop-color:#FF9B50"/>
		</linearGradient>
		<path style="fill:url(#SVGID_00000051345726958488868410000011876506887206785184_);" d="M51.8,45.5c-0.8,0-1.4-0.2-1.9-0.7
			s-0.7-1-0.7-1.8c0-0.2,0.1-0.3,0.2-0.4c0.1-0.1,0.3-0.2,0.4-0.2c0.2,0,0.3,0.1,0.4,0.2s0.2,0.3,0.2,0.4c0,0.4,0.1,0.7,0.3,0.9
			c0.2,0.2,0.5,0.3,0.8,0.3c0.1,0,0.2,0,0.3,0s0.2-0.1,0.3-0.2c0.1-0.1,0.2-0.2,0.2-0.4c0.1-0.2,0.1-0.4,0.1-0.7
			c0-0.5-0.1-0.9-0.4-1.1s-0.6-0.3-1.1-0.3h-0.4c-0.2,0-0.3,0-0.5-0.2S50,41.2,50,41c0-0.2,0.1-0.3,0.3-0.5c0,0,0.1,0,0.2-0.1
			s0.2-0.2,0.4-0.3c-0.7-0.2-1.2-0.5-1.7-0.9s-0.7-1.1-0.7-1.8c0-0.4,0.1-0.8,0.2-1.2s0.4-0.7,0.7-1s0.6-0.5,1-0.7
			c0.4-0.2,0.8-0.2,1.2-0.2c0.2,0,0.4,0,0.5-0.1c0.2-0.1,0.3-0.2,0.5-0.3c0.1-0.1,0.2-0.2,0.3-0.4c0.1-0.1,0.1-0.2,0.1-0.3
			c0-0.2,0.1-0.3,0.2-0.4c0.1-0.1,0.3-0.2,0.4-0.2c0.2,0,0.3,0.1,0.4,0.2s0.2,0.3,0.2,0.4c0,0.2,0,0.4-0.2,0.6
			c-0.1,0.3-0.3,0.7-0.7,1.2c0.3,0.3,0.6,0.6,0.7,1c0.1,0.4,0.2,0.8,0.2,1.2c0,0.4,0,0.8-0.1,1.1s-0.2,0.6-0.4,0.9
			c-0.2,0.3-0.4,0.5-0.6,0.7c-0.2,0.2-0.5,0.4-0.8,0.7c0.3,0.1,0.7,0.2,1,0.3s0.6,0.2,0.8,0.4c0.2,0.2,0.4,0.4,0.6,0.7
			c0.1,0.3,0.2,0.6,0.2,1c0,0.5-0.1,0.9-0.3,1.2s-0.5,0.6-0.8,0.8s-0.7,0.4-1,0.5C52.5,45.5,52.2,45.5,51.8,45.5z M50.9,37.4
			c0,0.1,0,0.2,0,0.4c0,0.2,0,0.3,0.1,0.5s0.2,0.3,0.3,0.5s0.3,0.2,0.5,0.2c0.2,0,0.4-0.1,0.6-0.2c0.2-0.1,0.3-0.3,0.4-0.4
			s0.2-0.4,0.2-0.6c0-0.2,0.1-0.4,0.1-0.6c0-0.1,0-0.2,0-0.3c0-0.1,0-0.2-0.1-0.4c0-0.1-0.1-0.2-0.2-0.3c-0.1-0.1-0.2-0.2-0.2-0.2
			C52.5,36,52.4,36,52.2,36c-0.2,0-0.3,0-0.4-0.2c-0.1-0.1-0.2-0.2-0.2-0.4c-0.2,0-0.3,0.2-0.5,0.6C51,36.5,50.9,36.9,50.9,37.4z"/>
	</g>
	
		<linearGradient id="SVGID_00000144325233993280340970000005244236933419460771_" gradientUnits="userSpaceOnUse" x1="4.9312" y1="50.0246" x2="94.9512" y2="50.0246">
		<stop  offset="0" style="stop-color:#FFBB5C"/>
		<stop  offset="1" style="stop-color:#FF9B50"/>
	</linearGradient>
	<path style="fill:url(#SVGID_00000144325233993280340970000005244236933419460771_);" d="M94.9,26.1c-0.7,0.9-1.2,1.9-2,2.7
		c-5.9,6-11.8,11.9-17.8,17.8c-0.5,0.5-0.8,1-0.8,1.8c0.1,2.6,0.1,5.2,0,7.8c-0.1,2.4-0.9,4.5-2.4,6.2c-1.7,1.9-3.8,2.8-6.3,2.8
		c-7.9,0-15.8,0-23.6,0c-2.2,0-3.8,0.7-5.2,2.3c-3.4,3.9-6.9,7.8-10.3,11.6c-0.5,0.6-1.1,1.1-1.8,1.3c-2.3,0.8-4.6-1.4-4.1-4
		c0.5-3.2,1.2-6.3,1.8-9.5c0-0.2,0.1-0.4,0.1-0.6c0.1-1,0-1.2-1.1-1.2c-2.4,0-4.9-0.1-7.3,0c-5.3,0.2-8.3-4-8.9-7.7
		c-0.1-0.7-0.2-1.3-0.2-2c0-8.8,0-17.6,0-26.3c0-2.2,0.5-4.2,1.8-6c1.6-2.4,3.9-3.7,6.8-3.7c4.4,0,8.9,0,13.4,0
		c12.8,0,25.5,0.1,38.3-0.1c5.8-0.1,9,4.7,9.2,9c0.1,1.2,0,2.4,0,3.8c0.4-0.4,0.6-0.6,0.8-0.8c3.6-3.6,7.1-7.1,10.7-10.7
		c2.1-2,4.1-2.1,6.1,0c0.4,0.4,0.8,0.7,1.1,1.1c0.6,0.9,1.2,1.7,1.8,2.6C94.9,25.1,94.9,25.6,94.9,26.1z M23.4,77.9
		c0.1,0,0.2,0,0.3,0c0.2-0.2,0.4-0.4,0.6-0.7c3.5-3.9,6.9-7.8,10.4-11.7c1.9-2.1,4.2-3.1,7-3.1c7.8,0.1,15.6,0,23.4,0
		c3.3,0,5.6-1.8,6.1-5c0.3-2.3,0.2-4.7,0.3-7c-0.1,0-0.2-0.1-0.3-0.1c-1.1,1.1-2.2,2.3-3.4,3.4c-0.4,0.4-0.9,0.7-1.4,0.8
		c-2.2,0.6-4.3,1.1-6.5,1.6c-1.6,0.4-2.4-0.4-2-2c0.5-2.1,1-4.3,1.5-6.4c0.1-0.5,0.5-1.1,0.9-1.5c3.5-3.5,7-7,10.5-10.6
		c0.2-0.2,0.5-0.6,0.5-0.9c0-2.1,0.1-4.2,0-6.2c-0.2-3.8-2.7-6.1-6.4-6.1c-2.4,0-4.8,0-7.1,0c-14.7,0-29.5,0-44.2,0
		c-2.6,0-4.4,1.2-5.3,3.5c-0.4,1-0.7,2.3-0.7,3.4c-0.1,4.2,0,8.5,0,12.7c0,4.6,0,9.1,0,13.7c0,4.2,2.5,6.7,6.7,6.7
		c2.5,0,4.9,0,7.4,0c1.8,0,3.1,1.2,3.3,3c0.1,0.6,0,1.2-0.1,1.8c-0.6,3.1-1.2,6.3-1.7,9.4C23.3,77.1,23.4,77.5,23.4,77.9z
		 M84.6,26.3c-7.1,7.1-14.2,14.2-21.2,21.2c1.1,1.1,2.2,2.3,3.3,3.4c7.1-7.1,14.2-14.2,21.2-21.3C86.8,28.6,85.7,27.5,84.6,26.3z
		 M86.6,24c1.3,1.3,2.4,2.4,3.7,3.7c0.5-0.5,1-1.1,1.6-1.7c0.4-0.4,0.4-0.9,0-1.3c-0.7-0.8-1.5-1.5-2.2-2.2c-0.4-0.4-0.8-0.4-1.2,0
		C87.7,22.9,87.2,23.5,86.6,24z M61.3,53c0.9-0.2,1.7-0.4,2.5-0.6c-0.7-0.7-1.2-1.2-1.9-1.9C61.7,51.3,61.5,52,61.3,53z"/>
	
		<linearGradient id="SVGID_00000000217950407892026410000001602258444657282967_" gradientUnits="userSpaceOnUse" x1="16.181" y1="47.6825" x2="48.0123" y2="47.6825">
		<stop  offset="0" style="stop-color:#FFBB5C"/>
		<stop  offset="1" style="stop-color:#FF9B50"/>
	</linearGradient>
	<path style="fill:url(#SVGID_00000000217950407892026410000001602258444657282967_);" d="M32.2,46.3c4.7,0,9.4,0,14.1,0
		c0.3,0,0.6,0,0.9,0.1c0.5,0.1,0.8,0.6,0.9,1.3c0,0.7-0.2,1.2-0.8,1.4c-0.3,0.1-0.5,0.1-0.8,0.1c-9.5,0-19.1,0-28.6,0
		c-0.2,0-0.4,0-0.6,0c-0.6-0.1-1-0.7-1-1.4c0-0.7,0.4-1.3,1-1.3c0.2,0,0.5,0,0.8,0C22.7,46.3,27.4,46.3,32.2,46.3z"/>
	
		<linearGradient id="SVGID_00000017504797318279335410000018047601890605677956_" gradientUnits="userSpaceOnUse" x1="16.1894" y1="55.4459" x2="54.9907" y2="55.4459">
		<stop  offset="0" style="stop-color:#FFBB5C"/>
		<stop  offset="1" style="stop-color:#FF9B50"/>
	</linearGradient>
	<path style="fill:url(#SVGID_00000017504797318279335410000018047601890605677956_);" d="M35.7,54c5.7,0,11.5,0,17.2,0
		c0.3,0,0.6,0,0.9,0c0.7,0.1,1.1,0.5,1.2,1.2c0.1,0.7-0.2,1.2-0.9,1.4c-0.3,0.1-0.7,0.1-1,0.1c-11.6,0-23.2,0-34.9,0
		c-0.4,0-0.8,0-1.1-0.2c-0.6-0.2-1-0.8-0.8-1.5c0.1-0.6,0.5-1.1,1.1-1.2c0.3,0,0.6,0,1,0C24.1,54,29.9,54,35.7,54z"/>
</g>
</svg>
